<svg xmlns="http://www.w3.org/2000/svg" xmlns:xlink="http://www.w3.org/1999/xlink" width="18" height="18" viewBox="0 0 18 18">
  <defs>
    <clipPath id="clip-path">
      <rect id="Rectangle_3897" data-name="Rectangle 3897" width="18" height="18" fill="none" stroke="#707070" stroke-width="0.75"/>
    </clipPath>
  </defs>
  <g id="Group_8914" data-name="Group 8914" clip-path="url(#clip-path)">
    <path id="Path_73311" data-name="Path 73311" d="M9.168,5.305l1.015,2.057a.265.265,0,0,0,.2.145l2.27.331a.266.266,0,0,1,.148.453l-1.643,1.6a.266.266,0,0,0-.076.235l.387,2.26a.266.266,0,0,1-.386.28L9.054,11.6a.267.267,0,0,0-.247,0l-2.03,1.067a.266.266,0,0,1-.386-.28l.387-2.26A.264.264,0,0,0,6.7,9.892l-1.642-1.6a.265.265,0,0,1,.147-.453l2.27-.331a.268.268,0,0,0,.2-.145L8.691,5.305A.266.266,0,0,1,9.168,5.305Z" transform="translate(0.07 0.073)" fill="none" stroke="#ffd55a" stroke-width="0.75"/>
    <path id="Path_73312" data-name="Path 73312" d="M14.536,2.392A8.619,8.619,0,1,1,2.392,3.455,8.62,8.62,0,0,1,14.536,2.392Z" transform="translate(0.005 0.005)" fill="none" stroke="#ffd55a" stroke-width="0.75"/>
  </g>
</svg>
