<svg xmlns="http://www.w3.org/2000/svg" width="16.75" height="16.75" viewBox="0 0 16.75 16.75">
  <g id="Group_2989" data-name="Group 2989" transform="translate(-584.625 -490.625)">
    <g id="Group_2990" data-name="Group 2990">
      <g id="Group_2989-2" data-name="Group 2989-2">
        <circle id="Ellipse_120" data-name="Ellipse 120" cx="8" cy="8" r="8" transform="translate(585 491)" fill="none" stroke="#ffd55a" stroke-width="0.75"/>
      </g>
    </g>
    <g id="Group_2991" data-name="Group 2991">
      <path id="Path_608" data-name="Path 608" d="M594.308,496.757c-.874,1.042-2.117,1.439-2.775.887s-.483-1.845.392-2.887,2.289-1.3,2.775-.887C595.142,494.247,595.183,495.715,594.308,496.757Z" fill="none" stroke="#ffd55a" stroke-width="0.75"/>
      <line id="Line_295" data-name="Line 295" x1="4.953" y2="5.903" transform="translate(586.642 497.691)" fill="none" stroke="#ffd55a" stroke-width="0.75"/>
      <line id="Line_296" data-name="Line 296" x1="8.23" y2="9.808" transform="translate(591.44 494.722)" fill="none" stroke="#ffd55a" stroke-width="0.75"/>
      <path id="Path_609" data-name="Path 609" d="M590.469,503.59l1.907-2.273a.986.986,0,0,1,1.39-.121l.553.463a.987.987,0,0,1,.121,1.391l-1.906,2.272" fill="none" stroke="#ffd55a" stroke-width="0.75"/>
    </g>
  </g>
</svg>
