<svg xmlns="http://www.w3.org/2000/svg" width="16.75" height="16.75" viewBox="0 0 16.75 16.75">
  <g id="Group_8242" data-name="Group 8242" transform="translate(-687.625 -488.625)">
    <circle id="Ellipse_166" data-name="Ellipse 166" cx="8" cy="8" r="8" transform="translate(688 489)" fill="none" stroke="#ffd55a" stroke-width="0.75"/>
    <g id="Group_8241" data-name="Group 8241">
      <path id="Path_73155" data-name="Path 73155" d="M699.177,500.608v.963h-5.656l-.2-.659a4.963,4.963,0,0,0,.793-1.142,3.115,3.115,0,0,0,.26-1.344,3.27,3.27,0,0,0-.115-.786h-1.433v-.811h1.155a6.393,6.393,0,0,1-.254-.844,4.022,4.022,0,0,1-.089-.882,2.767,2.767,0,0,1,.349-1.413,2.38,2.38,0,0,1,.976-.931,3.037,3.037,0,0,1,1.44-.33,2.586,2.586,0,0,1,1.99.748,2.851,2.851,0,0,1,.748,1.889h-1.065a1.794,1.794,0,0,0-.45-1.205,1.589,1.589,0,0,0-1.223-.456,1.691,1.691,0,0,0-1.2.431,1.718,1.718,0,0,0-.463,1.319,3.425,3.425,0,0,0,.089.792,9.109,9.109,0,0,0,.266.882h2.46v.811h-2.206a3.315,3.315,0,0,1,.114.786,3.146,3.146,0,0,1-.9,2.182Z" fill="#ffd55a"/>
    </g>
  </g>
</svg>
