<svg id="Group_8871" data-name="Group 8871" xmlns="http://www.w3.org/2000/svg" xmlns:xlink="http://www.w3.org/1999/xlink" width="20.032" height="18.85" viewBox="0 0 20.032 18.85">
  <defs>
    <clipPath id="clip-path">
      <rect id="Rectangle_3129" data-name="Rectangle 3129" width="20.032" height="18.85" transform="translate(0 0)" fill="none"/>
    </clipPath>
  </defs>
  <g id="Group_8870" data-name="Group 8870">
    <g id="Group_8869" data-name="Group 8869" clip-path="url(#clip-path)">
      <path id="Path_73265" data-name="Path 73265" d="M10.016,15.854V10.712L5.2,8.141.375,10.712v5.142L5.2,18.425Z" fill="none" stroke="#ffd55a" stroke-width="0.75"/>
      <path id="Path_73266" data-name="Path 73266" d="M.375,10.712l4.72,2.571,4.921-2.571" fill="none" stroke="#ffd55a" stroke-width="0.75"/>
      <line id="Line_806" data-name="Line 806" y1="5.142" transform="translate(5.196 13.283)" fill="none" stroke="#ffd55a" stroke-width="0.75"/>
      <path id="Path_73267" data-name="Path 73267" d="M19.657,15.854V10.712L14.836,8.141l-4.82,2.571v5.142l4.82,2.571Z" fill="none" stroke="#ffd55a" stroke-width="0.75"/>
      <path id="Path_73268" data-name="Path 73268" d="M10.016,10.712l4.72,2.571,4.921-2.571" fill="none" stroke="#ffd55a" stroke-width="0.75"/>
      <line id="Line_807" data-name="Line 807" y1="5.142" transform="translate(14.837 13.283)" fill="none" stroke="#ffd55a" stroke-width="0.75"/>
      <path id="Path_73269" data-name="Path 73269" d="M14.837,8.138V3L10.016.425,5.2,3V8.138l4.82,2.571Z" fill="none" stroke="#ffd55a" stroke-width="0.75"/>
    </g>
  </g>
  <path id="Path_73270" data-name="Path 73270" d="M5.2,3l4.72,2.571L14.837,3" fill="none" stroke="#ffd55a" stroke-width="0.75"/>
  <line id="Line_808" data-name="Line 808" y1="5.142" transform="translate(10.016 5.567)" fill="none" stroke="#ffd55a" stroke-width="0.75"/>
</svg>
