<svg xmlns="http://www.w3.org/2000/svg" width="16.75" height="16.75" viewBox="0 0 16.75 16.75">
  <g id="Layer_2" data-name="Layer 2" transform="translate(0.005 0.005)">
    <g id="Layer_1" data-name="Layer 1">
      <path id="Path_73237" data-name="Path 73237" d="M.38.38h16v1a3,3,0,0,1-3,3h-10a3,3,0,0,1-3-3v-1Z" transform="translate(16.75 4.75) rotate(180)" fill="none" stroke="#ffd55a" stroke-width="0.75"/>
      <rect id="Rectangle_3096" data-name="Rectangle 3096" width="8" height="6" transform="translate(16.37 10.37) rotate(180)" fill="none" stroke="#ffd55a" stroke-width="0.75"/>
      <path id="Path_73238" data-name="Path 73238" d="M11.38,10.38h5v6h-8v-3a3,3,0,0,1,3-3Z" transform="translate(24.75 26.75) rotate(180)" fill="none" stroke="#ffd55a" stroke-width="0.75"/>
      <path id="Path_73239" data-name="Path 73239" d="M.38,4.38h5a3,3,0,0,1,3,3v9h-8v-12Z" transform="translate(8.75 20.75) rotate(180)" fill="none" stroke="#ffd55a" stroke-width="0.75"/>
    </g>
  </g>
</svg>
